<?xml version="1.0" encoding="UTF-8"?>
<svg width="100px" height="100px" viewBox="0 0 200 200" version="1.1" xmlns="http://www.w3.org/2000/svg" xmlns:xlink="http://www.w3.org/1999/xlink">
    <g id="Page-1" stroke="none" stroke-width="1" fill="none" fill-rule="evenodd">
        <g id="Artboard" transform="translate(-67.000000, -38.000000)" fill-rule="nonzero">
            <g id="chevron-circle2" transform="translate(167.000000, 138.000000) scale(-1, 1) translate(-167.000000, -138.000000) translate(67.000000, 38.000000)">
                <rect id="Rectangle" fill="#000000" x="35" y="30" width="119" height="139"></rect>
                <path d="M100,0 C155.241935,0 200,44.7580645 200,100 C200,155.241935 155.241935,200 100,200 C44.7580645,200 0,155.241935 0,100 C0,44.7580645 44.7580645,0 100,0 Z M145.927419,93.1451613 L91.2903226,38.5080645 C87.5,34.7177419 81.3709677,34.7177419 77.6209677,38.5080645 L70.766129,45.3629032 C66.9758065,49.1532258 66.9758065,55.2822581 70.766129,59.0322581 L111.733871,100 L70.766129,140.967742 C66.9758065,144.758065 66.9758065,150.887097 70.766129,154.637097 L77.6209677,161.491935 C81.4112903,165.282258 87.5403226,165.282258 91.2903226,161.491935 L145.927419,106.854839 C149.717742,103.064516 149.717742,96.9354839 145.927419,93.1451613 Z" id="Shape" fill="#FFFFFF"></path>
            </g>
        </g>
    </g>
</svg>