<?xml version="1.0" encoding="UTF-8"?>
<svg width="50px" height="50px" viewBox="0 0 100 100" version="1.1" xmlns="http://www.w3.org/2000/svg" xmlns:xlink="http://www.w3.org/1999/xlink">
    <g id="Page-1" stroke="none" stroke-width="1" fill="none" fill-rule="evenodd">
        <g id="chevron" transform="translate(-67.000000, -38.000000)" fill-rule="nonzero">
            <g id="chevron-right" transform="translate(117.000000, 88.000000) scale(1, -1) translate(-117.000000, -88.000000) translate(67.000000, 38.000000)">
                <rect id="Rectangle" fill="#000000" x="17.5" y="15" width="59.5" height="69.5"></rect>
                <path d="M50,0 C77.6209677,0 100,22.3790323 100,50 C100,77.6209677 77.6209677,100 50,100 C22.3790323,100 0,77.6209677 0,50 C0,22.3790323 22.3790323,0 50,0 Z M72.9637097,46.5725806 L45.6451613,19.2540323 C43.75,17.358871 40.6854839,17.358871 38.8104839,19.2540323 L35.3830645,22.6814516 C33.4879032,24.5766129 33.4879032,27.641129 35.3830645,29.516129 L55.8669355,50 L35.3830645,70.483871 C33.4879032,72.3790323 33.4879032,75.4435484 35.3830645,77.3185484 L38.8104839,80.7459677 C40.7056452,82.641129 43.7701613,82.641129 45.6451613,80.7459677 L72.9637097,53.4274194 C74.858871,51.5322581 74.858871,48.4677419 72.9637097,46.5725806 Z" id="Shape" fill="#FFFFFF"></path>
            </g>
        </g>
    </g>
</svg>